<svg width="49" height="48" viewBox="0 0 49 48" fill="none" xmlns="http://www.w3.org/2000/svg">
<path d="M28.1987 10.3119C27.6697 9.92442 26.9225 9.9708 26.4456 10.4497C25.9196 10.978 25.9214 11.8328 26.4498 12.3589L26.4498 12.3589L35.9757 21.846L36.2331 22.1023L35.8699 22.1022L9.50694 22.101L9.31362 22.1141C8.65721 22.2056 8.15189 22.7694 8.15189 23.451C8.15189 24.1966 8.75631 24.801 9.5019 24.801L35.8659 24.8022L36.229 24.8023L35.9718 25.0585L26.4536 34.5398L26.3153 34.6993C25.9256 35.2266 25.9688 35.974 26.4457 36.4529C26.9718 36.9812 27.8266 36.9829 28.3549 36.4568L40.4549 24.4068L40.4615 24.4002L40.463 24.3991C40.5027 24.3589 40.5398 24.3162 40.5742 24.2713C40.5744 24.2711 40.5745 24.2709 40.5746 24.2708L40.5864 24.2551C40.6014 24.2349 40.6158 24.2145 40.6285 24.1951L40.6286 24.1949C40.6469 24.1673 40.6643 24.1388 40.6813 24.1086C40.6916 24.0902 40.7013 24.0719 40.7098 24.0546L40.7101 24.054C40.7289 24.0165 40.746 23.9778 40.7619 23.9371C40.7697 23.9167 40.777 23.8965 40.783 23.8779L40.7832 23.8774C40.796 23.8391 40.8071 23.8 40.8167 23.759C40.8213 23.7393 40.8254 23.7199 40.8288 23.7014L40.8289 23.7006C40.8362 23.6615 40.8418 23.6217 40.8457 23.5815L40.8519 23.4477L28.1987 10.3119ZM28.1987 10.3119L28.3587 10.4495L40.4548 22.4936C40.5241 22.5626 40.5842 22.637 40.6352 22.7156C40.651 22.7415 40.6658 22.766 40.6796 22.7906L40.6795 22.7906L40.6819 22.7946C40.693 22.813 40.7037 22.833 40.7145 22.8551C40.7303 22.889 40.7453 22.923 40.7587 22.9571L40.7597 22.9596C40.7699 22.9842 40.7787 23.0087 40.787 23.0344C40.7972 23.0674 40.8068 23.1019 40.8151 23.1365L40.8156 23.1386C40.8214 23.1614 40.8261 23.1836 40.8303 23.2067C40.8364 23.2425 40.8415 23.279 40.8452 23.3155L40.8454 23.3174C40.8483 23.3437 40.8502 23.3702 40.8513 23.3974L28.1987 10.3119Z" fill="#F5F5F5" stroke="#F1F5F8" stroke-width="0.3"/>
</svg>
