<svg width="46" height="46" viewBox="0 0 46 46" fill="none" xmlns="http://www.w3.org/2000/svg">
<path d="M41.7774 38.7227L34.4641 31.4094C36.826 28.395 38.1046 24.6733 38.0938 20.8438C38.0938 17.432 37.0821 14.0969 35.1866 11.2602C33.2912 8.42342 30.5971 6.21245 27.445 4.90684C24.293 3.60122 20.8246 3.25962 17.4785 3.92521C14.1323 4.59081 11.0586 6.23371 8.64617 8.64617C6.23371 11.0586 4.59081 14.1323 3.92521 17.4784C3.25962 20.8246 3.60122 24.293 4.90684 27.445C6.21245 30.5971 8.42342 33.2912 11.2602 35.1866C14.0969 37.0821 17.432 38.0938 20.8438 38.0938C24.6733 38.1046 28.395 36.826 31.4094 34.4641L38.7227 41.7773C39.1296 42.179 39.6783 42.4042 40.25 42.4042C40.8217 42.4042 41.3705 42.179 41.7774 41.7773C41.9784 41.577 42.1379 41.339 42.2467 41.0769C42.3555 40.8148 42.4116 40.5338 42.4116 40.25C42.4116 39.9662 42.3555 39.6852 42.2467 39.4231C42.1379 39.161 41.9784 38.923 41.7774 38.7227V38.7227ZM7.90626 20.8438C7.90626 18.285 8.66503 15.7836 10.0866 13.6561C11.5082 11.5285 13.5288 9.87027 15.8928 8.89107C18.2568 7.91186 20.8581 7.65565 23.3677 8.15485C25.8774 8.65404 28.1826 9.88622 29.992 11.6956C31.8013 13.5049 33.0335 15.8101 33.5327 18.3198C34.0319 20.8294 33.7757 23.4307 32.7965 25.7947C31.8172 28.1587 30.159 30.1793 28.0314 31.6009C25.9039 33.0225 23.4026 33.7813 20.8438 33.7813C17.414 33.7765 14.126 32.4119 11.7008 29.9867C9.27559 27.5615 7.91101 24.2735 7.90626 20.8438Z" fill="white"/>
</svg>
